<?xml version="1.0" encoding="utf-8"?>
<!-- Generator: Adobe Illustrator 16.0.4, SVG Export Plug-In . SVG Version: 6.00 Build 0)  -->
<!DOCTYPE svg PUBLIC "-//W3C//DTD SVG 1.1//EN" "http://www.w3.org/Graphics/SVG/1.1/DTD/svg11.dtd">
<svg version="1.1" id="Layer_1" xmlns="http://www.w3.org/2000/svg" xmlns:xlink="http://www.w3.org/1999/xlink" x="0px" y="0px"
	 width="320px" height="160px" viewBox="0 0 320 160" enable-background="new 0 0 320 160" xml:space="preserve">
<g>
	<rect x="94.396" y="11.004" fill="#FF7697" width="65.134" height="34.405"/>
</g>
<g>
	<rect x="159.531" y="45.409" fill="#85F985" width="143.403" height="34.405"/>
</g>
<g>
	<rect x="18.058" y="79.814" fill="#FF7697" width="141.474" height="34.403"/>
</g>
<g>
	<rect x="159.531" y="114.217" fill="#85F985" width="106.198" height="34.403"/>
</g>
<g enable-background="new    ">
	<path fill="#444444" d="M100.875,52.302h8.955c0.589,0,1.242,0.069,1.959,0.206c0.716,0.138,1.384,0.417,2.003,0.838
		s1.134,1.019,1.546,1.792s0.619,1.788,0.619,3.041c0,1.842-0.57,3.262-1.708,4.261c-1.139,1-2.769,1.499-4.89,1.499h-7.187v9.344
		h-1.296V52.302z M102.171,62.822h7.393c0.943,0,1.743-0.142,2.401-0.426c0.658-0.284,1.183-0.651,1.576-1.102
		c0.393-0.45,0.678-0.95,0.854-1.499c0.177-0.548,0.265-1.097,0.265-1.646c0-0.392-0.059-0.857-0.177-1.396
		c-0.118-0.539-0.354-1.058-0.707-1.557s-0.85-0.92-1.488-1.264c-0.638-0.342-1.487-0.514-2.548-0.514h-7.57V62.822z"/>
	<path fill="#444444" d="M116.132,65.731c0-1.077,0.152-2.091,0.457-3.042c0.304-0.95,0.751-1.788,1.34-2.512
		c0.589-0.725,1.315-1.298,2.18-1.719c0.864-0.421,1.856-0.632,2.975-0.632s2.111,0.211,2.975,0.632
		c0.864,0.421,1.59,0.995,2.18,1.719c0.589,0.725,1.036,1.562,1.34,2.512c0.304,0.95,0.457,1.964,0.457,3.042
		c0,1.078-0.152,2.096-0.457,3.056c-0.305,0.96-0.751,1.798-1.34,2.513c-0.589,0.715-1.316,1.283-2.18,1.704
		c-0.864,0.421-1.856,0.632-2.975,0.632s-2.111-0.21-2.975-0.632c-0.864-0.421-1.59-0.989-2.18-1.704
		c-0.589-0.715-1.036-1.552-1.34-2.513C116.284,67.828,116.132,66.809,116.132,65.731z M117.252,65.731
		c0,0.901,0.127,1.768,0.383,2.601c0.255,0.833,0.628,1.572,1.119,2.218s1.1,1.161,1.826,1.543c0.727,0.382,1.562,0.573,2.504,0.573
		s1.777-0.191,2.504-0.573c0.726-0.382,1.335-0.896,1.826-1.543c0.491-0.646,0.864-1.386,1.119-2.218
		c0.255-0.833,0.383-1.7,0.383-2.601s-0.128-1.768-0.383-2.601c-0.255-0.833-0.628-1.572-1.119-2.219
		c-0.491-0.646-1.1-1.161-1.826-1.542c-0.727-0.382-1.562-0.573-2.504-0.573s-1.777,0.191-2.504,0.573
		c-0.727,0.382-1.335,0.896-1.826,1.542s-0.864,1.386-1.119,2.219C117.379,63.963,117.252,64.831,117.252,65.731z"/>
	<path fill="#444444" d="M133.187,68.258c0.039,0.705,0.196,1.328,0.471,1.866c0.275,0.539,0.633,0.999,1.075,1.381
		s0.958,0.671,1.546,0.867c0.589,0.196,1.227,0.294,1.915,0.294c0.491,0,1.016-0.044,1.576-0.132c0.56-0.088,1.08-0.25,1.561-0.485
		c0.481-0.235,0.878-0.562,1.193-0.984c0.314-0.421,0.471-0.955,0.471-1.601c0-0.842-0.255-1.479-0.766-1.91
		c-0.511-0.431-1.154-0.764-1.929-0.999c-0.776-0.235-1.611-0.426-2.504-0.573c-0.894-0.147-1.728-0.367-2.504-0.661
		s-1.419-0.71-1.929-1.249c-0.511-0.539-0.766-1.327-0.766-2.365c0-0.744,0.167-1.367,0.5-1.866c0.333-0.5,0.761-0.896,1.281-1.19
		c0.52-0.294,1.104-0.504,1.753-0.632c0.648-0.127,1.296-0.191,1.944-0.191c0.785,0,1.521,0.088,2.209,0.265s1.281,0.46,1.782,0.852
		c0.501,0.392,0.894,0.892,1.178,1.499c0.285,0.607,0.427,1.342,0.427,2.204h-1.12c0-0.686-0.113-1.273-0.338-1.763
		c-0.226-0.49-0.541-0.886-0.943-1.19c-0.403-0.304-0.879-0.529-1.429-0.676s-1.139-0.22-1.767-0.22
		c-0.511,0-1.026,0.049-1.546,0.147c-0.521,0.098-0.987,0.265-1.399,0.5c-0.412,0.235-0.751,0.539-1.016,0.911
		s-0.397,0.823-0.397,1.352c0,0.607,0.147,1.097,0.442,1.469c0.294,0.373,0.682,0.671,1.164,0.896
		c0.481,0.226,1.021,0.407,1.62,0.544c0.599,0.137,1.203,0.274,1.812,0.411c0.746,0.137,1.448,0.299,2.106,0.485
		c0.658,0.187,1.227,0.441,1.708,0.764c0.481,0.323,0.858,0.74,1.134,1.249c0.275,0.509,0.413,1.156,0.413,1.939
		c0,0.823-0.187,1.499-0.56,2.027s-0.844,0.955-1.414,1.278c-0.57,0.323-1.203,0.548-1.9,0.676c-0.697,0.127-1.38,0.191-2.047,0.191
		c-0.864,0-1.664-0.113-2.4-0.338s-1.38-0.568-1.929-1.028c-0.55-0.46-0.982-1.023-1.296-1.69c-0.314-0.666-0.481-1.439-0.5-2.321
		H133.187z"/>
	<path fill="#444444" d="M152.392,59.149h-3.299v10.549c0,0.607,0.069,1.087,0.206,1.44s0.349,0.622,0.633,0.808
		c0.285,0.187,0.628,0.299,1.031,0.338c0.402,0.04,0.869,0.049,1.399,0.029v0.97c-0.57,0.039-1.124,0.034-1.664-0.015
		c-0.541-0.049-1.016-0.196-1.429-0.441c-0.412-0.245-0.741-0.612-0.987-1.102c-0.246-0.489-0.349-1.165-0.309-2.027V59.149h-2.798
		v-0.97h2.798v-4.702h1.119v4.702h3.299V59.149z"/>
</g>
<g>
	<g enable-background="new    ">
		<path fill="#444444" d="M167.347,86.553h1.855l8.219,19.541h0.059l8.13-19.541h1.855v20.98h-1.296V88.139h-0.06l-8.012,19.395
			h-1.296l-8.101-19.395h-0.059v19.395h-1.296V86.553z"/>
		<path fill="#444444" d="M190.263,99.981c0-1.077,0.151-2.091,0.456-3.042c0.305-0.949,0.752-1.787,1.341-2.512
			s1.315-1.298,2.18-1.719c0.863-0.422,1.855-0.633,2.975-0.633s2.111,0.211,2.976,0.633c0.863,0.421,1.59,0.994,2.18,1.719
			c0.589,0.725,1.035,1.562,1.34,2.512c0.305,0.951,0.457,1.965,0.457,3.042s-0.152,2.097-0.457,3.056
			c-0.305,0.961-0.751,1.798-1.34,2.513c-0.59,0.716-1.316,1.283-2.18,1.704c-0.864,0.422-1.856,0.632-2.976,0.632
			s-2.111-0.21-2.975-0.632c-0.864-0.421-1.591-0.988-2.18-1.704c-0.589-0.715-1.036-1.552-1.341-2.513
			C190.414,102.078,190.263,101.059,190.263,99.981z M191.382,99.981c0,0.901,0.128,1.769,0.383,2.601s0.629,1.572,1.119,2.219
			c0.491,0.646,1.1,1.16,1.826,1.543c0.727,0.381,1.562,0.572,2.504,0.572s1.777-0.191,2.504-0.572
			c0.727-0.383,1.335-0.896,1.826-1.543s0.864-1.387,1.119-2.219s0.383-1.699,0.383-2.601s-0.128-1.769-0.383-2.601
			s-0.628-1.572-1.119-2.219s-1.1-1.16-1.826-1.543c-0.727-0.382-1.562-0.572-2.504-0.572s-1.777,0.19-2.504,0.572
			c-0.727,0.383-1.335,0.896-1.826,1.543c-0.49,0.646-0.864,1.387-1.119,2.219S191.382,99.08,191.382,99.981z"/>
		<path fill="#444444" d="M207.906,95.779h0.089c0.137-0.49,0.387-0.95,0.751-1.381c0.362-0.432,0.805-0.803,1.325-1.117
			c0.521-0.312,1.1-0.553,1.738-0.72c0.638-0.166,1.3-0.239,1.988-0.22v1.116c-0.59-0.078-1.263-0.02-2.019,0.177
			c-0.756,0.195-1.478,0.627-2.165,1.293c-0.274,0.293-0.515,0.577-0.722,0.852c-0.206,0.274-0.378,0.578-0.515,0.91
			c-0.138,0.334-0.246,0.706-0.324,1.117c-0.079,0.412-0.128,0.901-0.147,1.469v8.258h-1.119V92.43h1.119V95.779z"/>
		<path fill="#444444" d="M221.309,93.398h-3.3v10.55c0,0.607,0.069,1.087,0.206,1.44c0.138,0.352,0.349,0.621,0.634,0.808
			c0.284,0.187,0.628,0.299,1.031,0.338c0.402,0.04,0.868,0.049,1.398,0.029v0.97c-0.569,0.039-1.124,0.034-1.664-0.015
			s-1.016-0.196-1.429-0.44c-0.412-0.245-0.741-0.612-0.986-1.103c-0.246-0.489-0.349-1.165-0.31-2.027v-10.55h-2.798V92.43h2.798
			v-4.702h1.119v4.702h3.3V93.398z"/>
		<path fill="#444444" d="M223.37,100.129v0.176c0,0.881,0.117,1.725,0.354,2.527c0.235,0.803,0.585,1.508,1.048,2.115
			s1.044,1.088,1.742,1.439c0.699,0.354,1.512,0.529,2.437,0.529c1.517,0,2.718-0.396,3.604-1.189
			c0.886-0.794,1.496-1.896,1.831-3.307h1.12c-0.335,1.764-1.057,3.115-2.165,4.056c-1.11,0.94-2.578,1.41-4.404,1.41
			c-1.119,0-2.096-0.201-2.931-0.603c-0.835-0.4-1.531-0.949-2.091-1.646c-0.56-0.694-0.978-1.518-1.252-2.468
			c-0.275-0.95-0.413-1.974-0.413-3.071c0-1.058,0.143-2.071,0.428-3.041c0.284-0.97,0.711-1.822,1.281-2.557
			c0.569-0.735,1.281-1.322,2.136-1.763c0.854-0.441,1.86-0.662,3.019-0.662c1.061,0,1.998,0.197,2.813,0.588
			c0.814,0.393,1.497,0.926,2.047,1.602s0.967,1.46,1.252,2.352c0.284,0.891,0.427,1.846,0.427,2.865
			c0,0.098-0.005,0.21-0.015,0.338c-0.01,0.127-0.015,0.23-0.015,0.309H223.37z M234.504,99.158
			c-0.039-0.822-0.177-1.602-0.413-2.336s-0.586-1.381-1.049-1.939s-1.023-1.004-1.684-1.337s-1.413-0.499-2.259-0.499
			c-0.906,0-1.704,0.172-2.393,0.514c-0.689,0.344-1.271,0.793-1.742,1.352c-0.473,0.559-0.837,1.21-1.093,1.954
			c-0.256,0.745-0.414,1.509-0.473,2.292H234.504z"/>
		<path fill="#444444" d="M238.274,92.43h1.119v3.085h0.06c0.117-0.47,0.323-0.915,0.618-1.337c0.295-0.421,0.652-0.789,1.075-1.102
			c0.422-0.313,0.894-0.559,1.414-0.734c0.52-0.177,1.064-0.266,1.635-0.266c0.726,0,1.354,0.094,1.885,0.279
			c0.53,0.188,0.981,0.432,1.355,0.734c0.372,0.305,0.667,0.646,0.883,1.029c0.216,0.382,0.363,0.77,0.442,1.16h0.059
			c0.452-1.058,1.056-1.855,1.812-2.395s1.753-0.809,2.99-0.809c0.687,0,1.32,0.104,1.899,0.309c0.579,0.206,1.08,0.52,1.502,0.941
			c0.423,0.421,0.752,0.955,0.987,1.602s0.354,1.41,0.354,2.291v10.314h-1.119V97.189c0-0.959-0.147-1.714-0.442-2.262
			c-0.294-0.549-0.644-0.965-1.046-1.25c-0.402-0.283-0.805-0.459-1.207-0.528c-0.403-0.068-0.712-0.103-0.928-0.103
			c-0.688,0-1.321,0.117-1.9,0.352c-0.579,0.236-1.08,0.588-1.502,1.059c-0.423,0.471-0.751,1.053-0.987,1.748
			c-0.235,0.695-0.354,1.494-0.354,2.395v8.934h-1.119V97.189c0-0.939-0.143-1.689-0.427-2.248
			c-0.285-0.559-0.618-0.975-1.002-1.248c-0.383-0.274-0.775-0.451-1.178-0.529s-0.722-0.117-0.957-0.117
			c-0.53,0-1.08,0.107-1.649,0.322c-0.57,0.217-1.09,0.549-1.562,1s-0.854,1.027-1.148,1.733c-0.295,0.705-0.442,1.538-0.442,2.497
			v8.934h-1.119V92.43z"/>
	</g>
</g>
</svg>
